{"title":"Catch22(1970)MPEG-4[DaScubaDude]","uid":14379885,"size":1220487432,"categoryP":"video","categoryS":"movies","magnet":"?xt=urn:btih:e18a742b4d37303653fd9a31247aa67d8404ec5d&amp;dn=Catch22%281970%29MPEG-4%5BDaScubaDude%5D&amp;tr=udp%3A%2F%2Ftracker.leechers-paradise.org%3A6969&amp;tr=udp%3A%2F%2Fzer0day.ch%3A1337&amp;tr=udp%3A%2F%2Fopen.demonii.com%3A1337&amp;tr=udp%3A%2F%2Ftracker.coppersurfer.tk%3A6969&amp;tr=udp%3A%2F%2Fexodus.desync.com%3A6969","seeders":0,"leechers":1,"uploader":"dascuba","files":1,"time":1461212778,"description":"Catch-22 (1970)\r\nR | 2h 2min | Comedy, Drama, War | 24 June 1970 (USA)\r\nA man is trying desperately to be certified insane during World War II, so he can stop flying missions.\r\nDirector: Mike Nichols\r\nWriters: Joseph Heller (novel), Buck Henry (screenplay)\r\nStars: Alan Arkin, Martin Balsam, Richard Benjamin\r\n\r\nGeneral\r\nComplete name                            : Catch22CATCH_22_Title1.mp4\r\nFormat                                   : MPEG-4\r\nFormat profile                           : Base Media\r\nCodec ID                                 : isom\r\nFile size                                : 1.14 GiB\r\nDuration                                 : 2h 1mn\r\nOverall bit rate                         : 1 338 Kbps\r\nMovie name                               : CATCH_22\r\nGenre                                    : Comedy\r\nWriting application                      : Lavf54.6.100\r\n\r\nVideo\r\nID                                       : 1\r\nFormat                                   : AVC\r\nFormat/Info                              : Advanced Video Codec\r\nFormat profile                           :   \r\nFormat settings, CABAC                   : No\r\nFormat settings, ReFrames                : 6 frames\r\nCodec ID                                 : avc1\r\nCodec ID/Info                            : Advanced Video Coding\r\nDuration                                 : 2h 1mn\r\nBit rate                                 : 1 204 Kbps\r\nWidth                                    : 720 pixels\r\nHeight                                   : 404 pixels\r\nDisplay aspect ratio                     : 16:9\r\nFrame rate mode                          : Constant\r\nFrame rate                               : 29.970 fps\r\nColor space                              : YUV\r\nChroma subsampling                       : 4:2:0\r\nBit depth                                : 8 bits\r\nScan type                                : Progressive\r\nBits/(Pixel*Frame)                       : 0.138\r\nStream size                              : 1.02 GiB (90%)\r\n\r\nAudio\r\nID                                       : 2\r\nFormat                                   : AAC\r\nFormat/Info                              : Advanced Audio Codec\r\nFormat profile                           : LC\r\nCodec ID                                 : 40\r\nDuration                                 : 2h 1mn\r\nBit rate mode                            : Constant\r\nBit rate                                 : 128 Kbps\r\nChannel(s)                               : 2 channels\r\nChannel positions                        : Front: L R\r\nSampling rate                            : 44.1 KHz\r\nCompression mode                         : Lossy\r\nStream size                              : 111 MiB (10%)","torrent":{"xt":"urn:btih:e18a742b4d37303653fd9a31247aa67d8404ec5d","amp;dn":"Catch22%281970%29MPEG-4%5BDaScubaDude%5D","amp;tr":["udp%3A%2F%2Ftracker.leechers-paradise.org%3A6969","udp%3A%2F%2Fzer0day.ch%3A1337","udp%3A%2F%2Fopen.demonii.com%3A1337","udp%3A%2F%2Ftracker.coppersurfer.tk%3A6969","udp%3A%2F%2Fexodus.desync.com%3A6969"],"infoHash":"e18a742b4d37303653fd9a31247aa67d8404ec5d","infoHashBuffer":{"type":"Buffer","data":[225,138,116,43,77,55,48,54,83,253,154,49,36,122,166,125,132,4,236,93]},"announce":[],"urlList":[]}}